<svg width="19" height="19" viewBox="0 0 19 19" fill="none" xmlns="http://www.w3.org/2000/svg">
<path d="M9.5 14.3846H9.50052C10.7954 14.3833 12.037 13.8683 12.9526 12.9526C13.8683 12.037 14.3833 10.7954 14.3846 9.50052V9.5C14.3846 8.53391 14.0981 7.58952 13.5614 6.78625C13.0247 5.98298 12.2618 5.35691 11.3693 4.9872C10.4767 4.6175 9.49458 4.52077 8.54706 4.70924C7.59954 4.89772 6.72918 5.36293 6.04606 6.04606C5.36293 6.72918 4.89772 7.59954 4.70924 8.54706C4.52077 9.49458 4.6175 10.4767 4.9872 11.3693C5.35691 12.2618 5.98298 13.0247 6.78625 13.5614C7.58952 14.0981 8.53391 14.3846 9.5 14.3846ZM5.11565 0.5H13.8844C15.1081 0.501381 16.2813 0.988112 17.1466 1.85342C18.012 2.71879 18.4987 3.8921 18.5 5.11592V13.8841C18.4987 15.1079 18.012 16.2812 17.1466 17.1466C16.2812 18.012 15.1079 18.4987 13.8841 18.5H5.11592C3.8921 18.4987 2.71879 18.012 1.85342 17.1466C0.988112 16.2813 0.501381 15.1081 0.5 13.8844V5.11565C0.501381 3.89193 0.988112 2.71872 1.85342 1.85342C2.71872 0.988112 3.89193 0.501381 5.11565 0.5ZM14.094 5.34638C14.3565 5.52177 14.6651 5.61538 14.9808 5.61538C15.4041 5.61538 15.8101 5.44722 16.1094 5.14788C16.4088 4.84855 16.5769 4.44256 16.5769 4.01923C16.5769 3.70354 16.4833 3.39494 16.3079 3.13246C16.1325 2.86997 15.8832 2.66539 15.5916 2.54458C15.2999 2.42377 14.979 2.39216 14.6694 2.45375C14.3598 2.51533 14.0753 2.66735 13.8521 2.89058C13.6289 3.1138 13.4769 3.39821 13.4153 3.70784C13.3537 4.01746 13.3853 4.33839 13.5061 4.63005C13.6269 4.92171 13.8315 5.171 14.094 5.34638ZM11.9231 9.5C11.9231 9.97924 11.781 10.4477 11.5147 10.8462C11.2485 11.2447 10.87 11.5552 10.4273 11.7386C9.98451 11.922 9.49731 11.97 9.02728 11.8765C8.55725 11.783 8.1255 11.5522 7.78663 11.2134C7.44775 10.8745 7.21698 10.4427 7.12348 9.97272C7.02999 9.50269 7.07797 9.01549 7.26137 8.57273C7.44477 8.12997 7.75534 7.75154 8.15381 7.48529C8.55228 7.21903 9.02076 7.07692 9.5 7.07692C10.1426 7.07692 10.759 7.33221 11.2134 7.78663C11.6678 8.24104 11.9231 8.85736 11.9231 9.5Z" fill="#1B414B" stroke="black"/>
</svg>
