<svg width="20" height="20" viewBox="0 0 20 20" fill="none" xmlns="http://www.w3.org/2000/svg">
<path d="M9.45833 10.654V9.34591L10.8597 9.99982L9.45833 10.654ZM0.5 10C0.5 4.75323 4.75323 0.5 10 0.5C15.2468 0.5 19.5 4.75323 19.5 10C19.5 15.2468 15.2468 19.5 10 19.5C4.75323 19.5 0.5 15.2468 0.5 10ZM4.29167 10C4.29167 10.8884 4.29596 11.6361 4.39198 12.2333C4.49018 12.844 4.69483 13.3718 5.15162 13.7619C5.59246 14.1383 6.19931 14.3257 6.95902 14.4295C7.72441 14.5341 8.72024 14.5625 10 14.5625C11.2798 14.5625 12.2756 14.5341 13.041 14.4295C13.8007 14.3257 14.4075 14.1383 14.8484 13.7619C15.3052 13.3718 15.5098 12.844 15.608 12.2333C15.704 11.6361 15.7083 10.8884 15.7083 10C15.7083 9.1116 15.704 8.36388 15.608 7.76667C15.5098 7.15596 15.3052 6.62818 14.8484 6.23812C14.4075 5.86168 13.8007 5.67431 13.041 5.57047C12.2756 5.46587 11.2798 5.4375 10 5.4375C8.72024 5.4375 7.72441 5.46587 6.95902 5.57047C6.19931 5.67431 5.59246 5.86168 5.15162 6.23812C4.69483 6.62818 4.49018 7.15596 4.39198 7.76667C4.29596 8.36388 4.29167 9.1116 4.29167 10Z" fill="#1B414B" stroke="black"/>
</svg>
