<svg aria-hidden="true" style="position: absolute; width: 0; height: 0; overflow: hidden;" version="1.1" xmlns="http://www.w3.org/2000/svg" xmlns:xlink="http://www.w3.org/1999/xlink">
<defs>
<symbol id="icon-facebook" viewBox="0 0 32 32">
<path d="M32 16.040c0-8.854-7.168-16.040-16-16.040s-16 7.186-16 16.040c0 7.763 5.504 14.228 12.8 15.719v-10.907h-3.2v-4.812h3.2v-4.010c0-3.096 2.512-5.614 5.6-5.614h4v4.812h-3.2c-0.88 0-1.6 0.722-1.6 1.604v3.208h4.8v4.812h-4.8v11.148c8.080-0.802 14.4-7.635 14.4-15.96z"></path>
</symbol>
<symbol id="icon-instagram" viewBox="0 0 32 32">
<path stroke-linejoin="miter" stroke-linecap="butt" stroke-miterlimit="4" stroke-width="1.6842" d="M16 24.227h0.001c2.181-0.002 4.272-0.87 5.814-2.412s2.41-3.633 2.412-5.814v-0.001c0-1.627-0.483-3.218-1.386-4.571s-2.189-2.407-3.692-3.030c-1.503-0.623-3.157-0.786-4.753-0.468s-3.062 1.101-4.212 2.252c-1.151 1.151-1.934 2.616-2.252 4.212s-0.154 3.25 0.468 4.753c0.623 1.503 1.677 2.788 3.030 3.692s2.943 1.386 4.571 1.386zM8.616 0.842h14.768c2.061 0.002 4.037 0.822 5.494 2.279s2.277 3.434 2.279 5.495v14.767c-0.002 2.061-0.822 4.037-2.279 5.495s-3.434 2.277-5.495 2.279h-14.767c-2.061-0.002-4.037-0.822-5.495-2.279s-2.277-3.433-2.279-5.494v-14.768c0.002-2.061 0.822-4.037 2.279-5.494s3.433-2.277 5.494-2.279zM23.737 9.004c0.442 0.295 0.962 0.453 1.494 0.453 0.713 0 1.397-0.283 1.901-0.787s0.787-1.188 0.787-1.901c0-0.532-0.158-1.051-0.453-1.494s-0.715-0.787-1.206-0.99c-0.491-0.203-1.032-0.257-1.553-0.153s-1.001 0.36-1.377 0.736c-0.376 0.376-0.632 0.855-0.736 1.376s-0.051 1.062 0.153 1.553c0.203 0.491 0.548 0.911 0.99 1.206zM20.081 16c0 0.807-0.239 1.596-0.688 2.267s-1.086 1.194-1.831 1.503c-0.746 0.309-1.566 0.39-2.358 0.232s-1.519-0.546-2.090-1.117c-0.571-0.571-0.959-1.298-1.117-2.090s-0.077-1.612 0.232-2.358 0.832-1.383 1.503-1.831c0.671-0.448 1.46-0.688 2.267-0.688 1.082 0 2.12 0.43 2.886 1.195s1.195 1.803 1.195 2.886z"></path>
</symbol>
<symbol id="icon-youtube" viewBox="0 0 32 32">
<path stroke-linejoin="miter" stroke-linecap="butt" stroke-miterlimit="4" stroke-width="1.6" d="M15.133 17.046v-2.093l2.242 1.046-2.242 1.047zM0.8 16c0-8.395 6.805-15.2 15.2-15.2s15.2 6.805 15.2 15.2c0 8.395-6.805 15.2-15.2 15.2s-15.2-6.805-15.2-15.2zM6.867 16c0 1.421 0.007 2.618 0.16 3.573 0.157 0.977 0.485 1.822 1.215 2.446 0.705 0.602 1.676 0.902 2.892 1.068 1.225 0.167 2.818 0.213 4.866 0.213s3.641-0.045 4.866-0.213c1.216-0.166 2.186-0.466 2.892-1.068 0.731-0.624 1.058-1.469 1.215-2.446 0.154-0.956 0.16-2.152 0.16-3.573s-0.007-2.618-0.16-3.573c-0.157-0.977-0.484-1.822-1.215-2.446-0.705-0.602-1.676-0.902-2.892-1.068-1.225-0.167-2.818-0.213-4.866-0.213s-3.641 0.045-4.866 0.213c-1.216 0.166-2.187 0.466-2.892 1.068-0.731 0.624-1.058 1.469-1.215 2.446-0.154 0.956-0.16 2.152-0.16 3.573z"></path>
</symbol>
</defs>
</svg>
